<?xml version="1.0" standalone="no"?>
<!DOCTYPE svg PUBLIC "-//W3C//DTD SVG 20010904//EN"
 "http://www.w3.org/TR/2001/REC-SVG-20010904/DTD/svg10.dtd">
<svg version="1.0" xmlns="http://www.w3.org/2000/svg"
 width="400.000000pt" height="400.000000pt" viewBox="0 0 400.000000 400.000000"
 preserveAspectRatio="xMidYMid meet">
<metadata>
Created by potrace 1.14, written by Peter Selinger 2001-2017
</metadata>
<g transform="translate(0.000000,400.000000) scale(0.100000,-0.100000)"
fill="#000000" stroke="none">
<path d="M1975 2980 c-3 -5 -3 -10 1 -10 4 0 -3 -9 -15 -19 -12 -11 -22 -22
-22 -25 2 -8 -52 -90 -61 -94 -5 -2 -8 -9 -8 -15 0 -7 -11 -25 -25 -41 -14
-16 -25 -35 -25 -43 0 -8 -4 -12 -8 -9 -4 2 -14 -10 -22 -27 -7 -18 -20 -38
-27 -45 -7 -8 -11 -18 -8 -23 4 -5 2 -9 -3 -9 -5 0 -21 -18 -36 -40 -14 -22
-24 -40 -21 -40 3 0 1 -6 -5 -12 -41 -49 -50 -63 -50 -76 0 -9 -3 -12 -7 -9
-6 7 -11 0 -50 -70 -12 -22 -35 -55 -50 -74 -15 -18 -21 -29 -13 -24 12 7 -7
-22 -30 -45 -12 -12 -137 -207 -143 -222 -3 -10 -11 -18 -17 -18 -6 0 -9 -4
-6 -9 3 -4 -5 -21 -18 -35 -12 -15 -35 -49 -49 -76 -23 -42 -24 -50 -12 -60 8
-7 15 -9 15 -4 0 5 5 2 10 -6 7 -11 10 -11 10 -2 0 9 5 10 18 3 11 -6 24 -6
32 -1 9 6 17 5 21 -2 5 -8 12 -8 21 -2 16 11 38 11 56 1 7 -5 12 -3 12 5 0 8
3 9 8 3 8 -11 52 -16 52 -6 0 7 69 5 76 -2 3 -3 18 -1 34 3 16 4 31 6 34 2 8
-8 56 -9 56 -2 0 8 32 6 46 -3 6 -3 14 -4 18 0 10 10 66 9 66 -2 0 -7 3 -7 8
0 4 6 13 10 20 11 6 1 17 2 22 3 12 1 14 38 2 43 -12 5 -73 108 -64 108 4 0
-1 5 -10 11 -10 5 -18 18 -18 27 0 10 -5 23 -10 28 -11 11 -21 151 -11 156 3
2 17 24 31 49 24 45 75 111 132 170 15 16 24 29 20 29 -4 0 1 5 11 11 9 5 17
17 17 25 0 8 5 12 10 9 6 -3 10 1 10 9 0 9 4 16 9 16 5 0 15 16 22 35 7 19 15
32 18 30 6 -6 32 50 39 85 6 29 7 161 1 204 -2 15 -9 30 -16 33 -6 3 -9 11 -6
19 3 8 0 14 -7 14 -6 0 -9 4 -5 9 3 6 -3 14 -12 20 -10 6 -14 11 -10 11 5 0 2
7 -7 15 -17 17 -42 20 -51 5z"/>
<path d="M2259 2576 c-4 -5 -8 -54 -10 -114 -1 -41 -8 -80 -15 -90 -7 -9 -14
-25 -14 -34 0 -10 -4 -18 -10 -18 -5 0 -10 -6 -10 -12 0 -7 -27 -38 -61 -68
-33 -30 -79 -72 -101 -92 -22 -21 -45 -38 -51 -38 -6 0 -7 -3 -4 -6 4 -4 -3
-20 -15 -37 -16 -22 -22 -45 -22 -81 1 -44 8 -95 15 -103 1 -2 2 -6 3 -10 3
-16 29 -58 39 -65 6 -3 19 -5 29 -3 10 2 18 0 18 -5 0 -6 10 -6 25 0 16 6 26
6 31 -1 4 -6 11 -6 20 2 11 9 14 9 14 0 0 -8 5 -9 19 -1 13 7 22 7 26 0 4 -7
13 -7 26 0 13 8 19 7 19 0 0 -8 6 -8 20 0 14 8 20 8 20 0 0 -6 5 -8 11 -5 17
11 59 13 59 3 0 -5 9 -4 20 2 15 8 20 8 20 -1 0 -8 4 -8 15 1 12 10 15 10 15
0 0 -10 3 -10 15 0 12 10 15 10 15 0 0 -10 3 -10 15 0 11 9 15 9 15 1 0 -9 5
-9 20 -1 14 8 20 8 20 0 0 -6 5 -8 12 -4 15 9 58 12 58 4 0 -6 41 -5 48 0 8 7
102 4 102 -3 0 -5 7 -2 15 7 22 22 19 31 -30 107 -25 38 -45 74 -45 80 0 6 -4
7 -10 4 -5 -3 -10 -1 -10 5 0 12 -51 93 -62 98 -5 2 -8 8 -8 13 0 5 -16 32
-35 59 -19 27 -35 52 -35 55 0 9 -113 180 -124 187 -6 4 -7 8 -3 8 4 0 -1 10
-13 22 -11 12 -20 27 -20 34 0 7 -3 14 -7 16 -13 5 -63 75 -58 80 3 3 -2 5
-10 5 -8 0 -15 -1 -16 -1z"/>
<path d="M1362 1742 c-12 -2 -20 -7 -17 -12 3 -5 1 -11 -5 -15 -5 -3 -10 -11
-10 -16 0 -6 5 -7 12 -3 7 5 8 3 2 -7 -12 -20 -13 -91 -1 -106 6 -9 6 -13 -1
-13 -7 0 -10 -16 -7 -40 2 -23 0 -51 -4 -63 -8 -21 -15 -23 -63 -20 -29 2 -58
5 -63 7 -7 2 -12 52 -13 122 -1 66 -5 127 -8 137 -5 16 -8 15 -29 -9 -13 -15
-29 -39 -37 -53 -7 -14 -17 -29 -23 -33 -5 -4 -6 -8 -2 -8 4 0 -3 -12 -17 -27
-14 -15 -23 -30 -20 -35 3 -4 0 -8 -6 -8 -6 0 -9 -4 -5 -9 3 -6 -3 -14 -13
-20 -9 -5 -24 -25 -32 -45 -7 -20 -17 -36 -20 -36 -7 0 -84 -120 -84 -130 0
-5 -8 -14 -48 -62 -10 -11 -15 -24 -13 -28 3 -4 -2 -10 -10 -14 -8 -3 -15 -10
-15 -16 0 -6 -15 -32 -32 -58 -70 -103 -74 -110 -60 -124 8 -8 276 -14 417 -9
57 2 58 7 58 154 -1 95 2 137 10 140 7 2 38 5 69 5 59 0 74 -11 61 -45 -5 -12
-3 -14 7 -8 9 6 11 4 5 -6 -14 -21 -14 -159 -1 -152 8 5 8 2 1 -8 -12 -16 -12
-34 -2 -64 6 -19 15 -20 157 -19 167 2 179 6 175 68 0 17 4 34 9 38 7 5 6 8
-3 8 -11 0 -11 3 -1 15 7 8 8 15 4 15 -5 0 -9 23 -9 50 0 28 4 50 10 50 7 0 7
3 0 8 -13 9 -13 82 0 82 5 0 4 5 -2 11 -7 7 -8 20 -3 34 4 12 5 28 0 35 -5 7
-4 24 1 37 5 12 5 23 1 23 -10 0 -8 42 2 58 4 7 3 12 -1 12 -9 0 -8 73 1 96 2
6 2 15 -2 19 -10 10 -9 29 3 37 6 5 6 8 -2 8 -7 0 -13 9 -13 19 0 11 -6 23
-12 28 -13 8 -250 12 -296 5z"/>
<path d="M1756 1738 c2 -3 1 -9 -3 -11 -5 -3 -8 -152 -7 -331 1 -232 -2 -323
-10 -319 -6 4 -5 0 1 -8 7 -9 11 -25 8 -37 -7 -38 17 -44 174 -46 82 -1 148 1
145 5 -2 4 2 11 9 17 9 8 12 61 12 206 -1 108 2 202 6 208 5 7 32 11 72 9 74
-3 103 15 93 55 -4 15 -2 24 5 24 8 0 7 6 -2 17 -12 15 -12 16 1 8 12 -6 13
-5 3 6 -15 15 -17 33 -4 24 6 -3 6 7 0 27 -11 41 -11 41 3 32 6 -4 8 -3 5 3
-11 17 -17 84 -8 78 5 -3 4 5 -2 18 -10 22 -11 22 -258 22 -136 0 -245 -3
-243 -7z"/>
<path d="M2350 1737 c0 -5 -4 -5 -10 -2 -11 7 -11 6 -14 -45 -1 -20 -5 -41
-10 -48 -4 -7 -3 -12 1 -12 7 0 9 -47 3 -75 -1 -5 -1 -12 0 -15 7 -19 5 -70
-4 -70 -7 0 -8 -3 -1 -8 12 -9 14 -62 3 -62 -5 0 -4 -8 1 -18 7 -13 6 -23 -1
-30 -8 -8 -8 -12 -1 -12 10 0 9 -49 -2 -77 -2 -7 0 -13 5 -13 5 0 6 -12 3 -27
-3 -16 -5 -34 -4 -40 2 -21 3 -57 1 -78 -1 -11 1 -32 3 -47 2 -17 0 -28 -7
-28 -6 0 -5 -4 2 -9 8 -4 13 -12 12 -17 -2 -18 77 -22 263 -14 68 4 78 16 72
94 -2 36 0 46 13 46 8 0 13 -3 9 -6 -3 -4 0 -19 9 -35 8 -16 14 -30 13 -31 -6
-10 15 -48 26 -48 11 0 29 34 26 53 -1 4 4 7 11 7 6 0 8 3 5 6 -3 4 -1 16 5
28 7 11 13 24 14 29 1 4 2 10 3 15 1 4 7 -2 13 -12 8 -15 8 -21 0 -24 -7 -2
-8 -12 -3 -25 4 -12 6 -36 4 -54 -1 -18 3 -35 9 -39 15 -10 418 -11 418 -2 0
4 6 5 13 3 21 -8 41 11 33 31 -4 11 -7 21 -6 23 1 2 -5 8 -14 13 -9 5 -16 13
-16 19 0 5 -9 19 -20 31 -10 12 -17 24 -15 28 2 3 -5 13 -16 20 -10 8 -19 22
-19 32 0 10 -5 18 -10 18 -6 0 -16 12 -23 28 -6 15 -17 31 -24 35 -7 4 -13 14
-13 21 0 7 -8 21 -18 32 -10 10 -24 34 -31 52 -7 17 -17 32 -21 32 -4 0 -13
14 -20 30 -7 17 -16 30 -20 30 -3 0 -13 12 -21 28 -7 15 -20 37 -29 48 -26 36
-49 71 -92 139 -26 39 -39 48 -51 36 -6 -6 -7 -11 -1 -11 5 0 3 -4 -4 -8 -7
-5 -14 -17 -16 -28 -3 -10 -11 -35 -19 -54 -8 -19 -17 -44 -21 -54 -6 -19 -7
-19 -21 0 -8 10 -15 29 -15 42 0 12 -4 22 -10 22 -5 0 -10 11 -10 24 0 14 -5
28 -10 31 -6 4 -8 11 -5 16 4 5 1 9 -5 9 -6 0 -9 4 -5 9 3 5 -5 13 -17 17 -36
11 -128 11 -128 -1 0 -6 -3 -6 -8 1 -8 12 -162 13 -162 1z"/>
</g>
</svg>
